<?xml version="1.0" standalone="no"?>
<!DOCTYPE svg PUBLIC "-//W3C//DTD SVG 20010904//EN"
 "http://www.w3.org/TR/2001/REC-SVG-20010904/DTD/svg10.dtd">
<svg version="1.0" xmlns="http://www.w3.org/2000/svg"
 width="1280.000000pt" height="640.000000pt" viewBox="0 0 1280.000000 640.000000"
 preserveAspectRatio="xMidYMid meet">
<metadata>
Created by potrace 1.15, written by Peter Selinger 2001-2017
</metadata>
<g transform="translate(0.000000,640.000000) scale(0.100000,-0.100000)"
fill="#ffffff" stroke="none">
<path d="M7450 6246 c0 -7 -7 -16 -15 -20 -8 -3 -15 -14 -15 -24 0 -14 39 -37
166 -97 156 -74 280 -143 272 -151 -2 -2 -98 -10 -213 -19 -241 -17 -360 -31
-430 -49 l-50 -12 -3 -63 c-3 -56 -1 -62 15 -57 10 3 88 22 173 43 145 35 165
37 317 38 89 0 165 -3 169 -8 4 -4 -2 -30 -14 -57 -12 -28 -32 -72 -44 -100
l-22 -50 32 -32 c72 -76 100 -225 58 -310 -17 -36 -21 -38 -66 -38 -45 0 -48
-2 -75 -44 -32 -50 -82 -82 -146 -92 -33 -5 -57 -19 -97 -55 -30 -26 -82 -60
-117 -75 l-64 -29 -82 -137 c-73 -124 -118 -181 -187 -235 -23 -18 -57 -99
-96 -230 -19 -66 -23 -72 -50 -75 -27 -3 -30 -9 -71 -128 -23 -69 -52 -149
-63 -178 -27 -66 -27 -78 -1 -85 44 -12 5 -27 -68 -27 -55 0 -79 4 -87 15 -10
13 -30 11 -161 -10 -177 -30 -292 -32 -338 -9 -18 9 -35 21 -38 26 -9 15 -587
5 -622 -10 -23 -10 -34 -9 -57 3 -22 11 -64 15 -165 15 -132 0 -135 0 -135 22
0 12 -7 29 -16 39 -15 16 -15 20 0 41 12 17 16 47 16 118 0 94 -1 97 -30 125
-33 32 -60 106 -60 167 0 29 -6 41 -25 54 -14 9 -48 45 -75 80 -41 52 -47 64
-31 64 10 0 24 -7 31 -15 17 -20 53 -19 73 3 21 23 22 79 2 152 -21 78 -19 86
20 110 41 25 65 66 65 110 0 27 -3 30 -30 30 -34 0 -35 2 -18 29 9 15 9 28 -1
58 -11 34 -10 43 10 88 17 38 23 69 23 125 0 88 -12 116 -56 125 -57 12 -138
56 -160 86 -17 23 -36 32 -96 45 -185 41 -330 -20 -432 -183 -41 -64 -93 -187
-123 -289 l-15 -52 33 -32 c19 -18 47 -58 62 -88 23 -45 25 -56 13 -60 -8 -3
-30 -20 -47 -38 -26 -25 -33 -40 -33 -72 0 -40 -1 -41 -52 -58 -29 -9 -89 -34
-133 -56 -231 -114 -328 -260 -303 -452 7 -47 5 -63 -7 -76 -11 -12 -15 -39
-15 -92 l0 -76 -32 -6 c-153 -27 -241 -31 -628 -26 -223 2 -574 5 -781 5 -344
0 -377 -1 -393 -17 -22 -22 -90 -24 -129 -3 -25 13 -30 13 -44 0 -16 -16 -49
-20 -57 -7 -11 18 69 133 162 233 96 105 168 203 179 247 4 16 10 21 21 17 8
-3 30 5 48 17 31 21 34 28 34 71 0 40 3 50 20 54 18 5 20 14 20 78 0 64 -2 73
-20 78 -14 3 -20 14 -20 31 l0 26 -94 0 -94 0 -41 -76 c-61 -113 -109 -182
-172 -246 -46 -47 -63 -58 -89 -58 -52 0 -68 16 -119 118 -27 53 -74 132 -105
175 l-56 78 0 75 c0 71 -1 74 -23 74 -23 0 -152 41 -163 52 -3 4 14 26 38 51
29 30 55 47 78 52 l35 6 -3 115 c-3 99 -1 114 13 114 8 0 18 7 21 15 4 8 15
15 25 15 15 0 7 17 -42 88 -72 102 -104 139 -141 158 -22 12 -28 22 -28 49 0
19 2 35 4 35 2 0 84 14 182 31 236 40 327 71 379 129 12 13 31 20 55 20 43 0
90 32 90 61 0 12 -15 26 -40 39 -36 18 -42 19 -55 6 -8 -8 -24 -18 -35 -21
-11 -3 -20 -11 -20 -16 0 -5 -37 -9 -82 -9 -123 0 -194 -22 -395 -121 l-181
-89 -34 18 c-48 27 -46 46 9 105 65 68 118 161 187 328 31 75 56 139 56 143 0
11 -112 -44 -150 -74 -38 -30 -90 -118 -90 -152 0 -12 -8 -18 -24 -18 -21 0
-25 -7 -36 -62 -6 -35 -31 -114 -54 -177 -41 -109 -44 -114 -79 -126 -51 -18
-62 -28 -128 -126 -32 -48 -72 -97 -89 -109 -29 -20 -30 -25 -30 -93 0 -67 2
-74 29 -100 16 -15 37 -49 47 -75 9 -26 27 -70 39 -99 l23 -51 -43 -47 c-52
-57 -92 -85 -122 -85 -19 0 -30 -16 -66 -93 -24 -51 -90 -167 -147 -257 -191
-305 -230 -413 -237 -666 l-5 -161 103 -5 c153 -8 254 -52 320 -142 l30 -41
-57 -3 c-71 -4 -134 9 -252 53 -83 32 -95 34 -108 20 -9 -8 -26 -15 -40 -15
-28 0 -30 -10 -9 -50 24 -47 30 -165 11 -238 -15 -58 -15 -65 0 -88 19 -28 14
-126 -8 -169 -10 -17 -11 -56 -7 -142 3 -65 3 -275 -1 -468 -4 -192 -6 -351
-5 -353 1 -1 64 5 139 13 238 26 618 53 1003 71 145 6 152 8 155 28 3 20 9 21
133 23 72 1 177 6 234 12 125 13 174 14 167 2 -3 -4 -22 -11 -43 -14 -21 -4
-44 -15 -53 -26 -13 -17 -55 -23 -410 -56 -217 -20 -570 -54 -785 -76 -360
-37 -392 -39 -417 -25 -14 9 -40 16 -57 16 -27 0 -31 -4 -31 -25 0 -14 -9 -44
-21 -66 -11 -22 -19 -53 -17 -67 3 -26 5 -27 78 -30 87 -4 193 9 372 43 150
29 280 41 334 30 l39 -8 -55 -11 c-30 -7 -91 -26 -135 -43 -44 -17 -104 -34
-133 -38 -32 -4 -50 -11 -46 -17 4 -6 -3 -19 -16 -28 -33 -25 -20 -45 47 -77
49 -24 59 -33 61 -57 3 -26 1 -28 -20 -22 -13 3 -85 11 -160 17 -130 11 -300
3 -352 -17 -33 -13 -16 -204 25 -287 l19 -37 85 0 c82 0 85 -1 85 -23 0 -29
18 -47 47 -47 29 0 30 23 2 41 -20 14 -20 14 11 37 l32 24 65 -18 c51 -14 71
-15 94 -7 16 6 29 7 29 2 0 -5 9 -9 19 -9 33 0 33 -17 1 -40 -28 -20 -31 -20
-54 -5 -23 16 -29 15 -93 -5 -37 -12 -74 -24 -81 -26 -26 -8 -4 -99 33 -134
23 -22 24 -25 9 -41 -20 -23 -19 -27 39 -88 l49 -52 47 31 c70 44 133 40 89
-7 -14 -15 -33 -23 -55 -23 -29 0 -33 -3 -33 -27 1 -16 7 -39 15 -53 8 -14 14
-35 15 -47 0 -20 5 -23 40 -23 35 0 42 -4 51 -27 18 -44 13 -132 -11 -212 -12
-41 -24 -98 -27 -128 -6 -52 -6 -53 -39 -53 -40 0 -44 -15 -13 -54 25 -31 35
-33 42 -6 6 24 43 27 74 5 19 -13 21 -13 26 5 4 16 14 20 51 20 25 0 46 -4 46
-10 0 -5 14 -17 31 -26 26 -13 59 -15 208 -11 l176 4 3 26 c3 21 -3 29 -25 39
-54 24 -61 65 -10 70 25 2 31 7 29 23 -13 99 -57 161 -155 219 l-58 34 43 25
c24 13 84 46 133 72 167 89 206 125 150 139 -33 8 -32 31 3 53 15 10 55 39 90
64 34 26 83 56 108 66 44 18 45 18 42 63 l-3 45 -60 -3 c-33 -1 -66 2 -74 7
-23 15 -5 39 37 50 47 13 121 -6 167 -43 27 -22 28 -24 12 -40 -9 -10 -17 -33
-17 -51 0 -40 31 -74 132 -149 55 -41 65 -52 56 -65 -8 -13 -3 -33 22 -84 21
-44 31 -77 28 -99 -3 -31 -1 -33 31 -36 50 -5 109 22 169 78 l52 49 0 74 c0
66 -2 75 -20 80 -17 4 -20 14 -20 70 l0 65 -29 -11 c-38 -14 -76 4 -90 44
l-10 29 125 0 c75 0 134 -5 147 -11 16 -9 22 -9 25 0 2 6 10 11 18 11 19 0 18
6 -6 38 -32 43 -19 58 63 71 158 25 336 33 595 26 l262 -7 0 32 c0 29 3 32 23
26 109 -30 354 -68 529 -82 l87 -7 3 -31 3 -31 67 0 c77 0 102 -14 66 -37 -29
-18 -70 -34 -126 -48 l-43 -11 3 -52 3 -52 50 -7 c54 -8 125 -36 125 -50 0 -4
-42 -8 -92 -8 -60 0 -102 -5 -120 -14 l-27 -14 -3 46 c-5 75 -23 54 -26 -30
l-3 -78 106 0 c71 0 117 -5 141 -15 32 -13 38 -13 57 0 30 21 89 18 182 -9 63
-18 81 -27 83 -43 3 -17 -4 -21 -52 -26 -79 -8 -96 -20 -96 -67 0 -73 44 -95
213 -106 53 -3 97 -9 97 -12 -1 -4 -37 -24 -81 -45 -58 -26 -79 -41 -76 -51 3
-8 9 -41 13 -74 6 -55 4 -61 -17 -76 -23 -16 -23 -16 21 -16 34 0 50 -6 68
-25 45 -47 104 -57 310 -54 103 2 231 3 285 2 113 -2 108 -8 77 108 -11 41
-20 92 -20 113 0 26 -9 53 -26 78 -57 81 -39 165 66 307 30 42 63 88 73 104
17 26 17 27 -2 27 -10 0 -35 -7 -56 -16 -42 -17 -96 -15 -103 4 -2 8 8 12 30
12 19 0 60 9 93 21 32 11 67 18 77 16 16 -5 18 2 18 49 l0 53 -77 3 c-88 3
-103 18 -43 42 49 19 139 21 164 3 16 -11 35 -9 125 14 245 63 259 64 1026 64
385 0 722 4 750 9 45 8 49 7 37 -7 -7 -8 -41 -25 -74 -36 -73 -25 -108 -54
-108 -91 0 -27 1 -27 88 -36 144 -14 198 -11 231 14 17 12 33 18 36 12 10 -16
-14 -49 -40 -56 -14 -3 -29 -13 -34 -22 -6 -10 -27 -16 -65 -18 -84 -5 -151
-47 -96 -61 23 -6 27 -33 5 -33 -9 0 -15 -9 -15 -25 0 -33 -25 -42 -50 -20
-11 10 -23 15 -27 11 -14 -13 13 -39 57 -55 42 -16 45 -19 58 -71 12 -53 11
-107 -3 -141 -5 -14 4 -18 52 -24 32 -4 118 -22 191 -41 164 -42 234 -50 300
-34 44 10 54 10 74 -4 17 -13 49 -16 144 -16 103 0 123 -3 137 -17 15 -18 21
-36 18 -60 -1 -9 -20 -13 -61 -13 -55 0 -60 -2 -60 -22 0 -12 7 -30 17 -40 15
-17 15 -19 -1 -36 -9 -9 -26 -30 -37 -45 -19 -26 -23 -27 -38 -13 -36 33 -141
10 -141 -30 0 -12 63 -14 440 -14 391 0 439 2 433 15 -14 38 -118 59 -165 34
-17 -9 -25 -7 -45 14 -34 33 -22 47 40 47 61 0 97 20 97 54 0 30 -10 38 -106
85 -44 21 -85 45 -92 53 -10 13 -7 16 26 21 42 7 79 41 107 97 41 83 83 99
142 54 25 -19 33 -21 33 -10 0 8 7 19 16 24 14 8 14 12 3 33 -7 13 -15 41 -18
63 l-6 38 -64 -48 c-51 -38 -73 -49 -103 -49 -47 0 -64 15 -49 44 17 31 44 42
122 48 l69 6 0 41 c0 36 -4 43 -32 56 -25 11 -38 28 -54 70 l-22 55 -48 3
c-72 4 -80 8 -59 32 10 11 38 29 62 41 54 26 53 46 -1 74 -22 11 -41 26 -43
32 -6 16 838 10 1004 -7 100 -10 125 -10 138 0 27 22 156 25 213 5 46 -17 51
-17 73 -1 33 23 55 20 97 -13 48 -38 88 -48 250 -67 154 -17 164 -20 228 -69
40 -30 54 -36 86 -33 34 3 38 1 38 -19 0 -23 1 -23 133 -23 109 0 139 -4 175
-20 62 -28 53 -40 -31 -40 -83 0 -117 -16 -117 -56 0 -21 10 -29 64 -54 36
-16 69 -37 75 -48 9 -16 26 -20 123 -25 97 -6 208 -22 296 -42 41 -10 12 -28
-35 -21 -52 7 -61 -5 -43 -59 19 -56 44 -66 193 -78 73 -5 136 -13 140 -17 5
-4 -7 -17 -27 -29 -66 -41 -136 -141 -136 -195 0 -30 38 -62 91 -76 76 -21
124 13 124 86 l0 44 52 0 52 0 11 43 c36 141 65 228 92 280 44 82 109 142 180
168 l58 22 0 42 c0 42 1 43 54 69 37 18 67 44 100 85 l46 60 -42 3 c-39 3 -43
6 -46 32 -3 28 -2 29 29 22 61 -12 100 -71 67 -104 -9 -9 -8 -12 5 -12 9 0 17
-7 17 -15 0 -12 19 -15 115 -15 63 0 115 4 115 8 0 10 -32 27 -83 42 -24 8
-43 21 -49 36 -6 13 -9 26 -7 28 10 8 342 46 405 46 66 0 72 2 82 25 21 47 14
97 -27 181 l-39 81 -108 6 c-60 4 -383 5 -719 1 -335 -3 -654 -2 -709 3 l-98
8 20 25 c20 25 21 25 50 8 38 -22 63 -22 169 -1 80 17 86 17 115 0 29 -17 32
-17 50 0 17 15 34 17 126 13 208 -8 222 -7 249 24 13 16 22 30 20 32 -2 3 -35
-3 -73 -12 -91 -21 -324 -23 -419 -3 -70 14 -69 14 180 19 l250 5 -3 25 c-8
53 -55 76 -96 45 -11 -8 -28 -15 -38 -15 -25 0 -100 49 -93 60 3 6 38 10 76
10 67 0 70 1 80 28 15 38 6 79 -35 171 -37 80 -44 127 -26 162 10 17 9 18 -15
7 -32 -14 -89 10 -136 58 -38 39 -84 46 -94 15 -8 -27 -34 -35 -42 -13 -3 9
-25 58 -48 107 -50 109 -92 149 -173 166 -58 12 -68 7 -74 -30 -2 -19 -10 -25
-40 -28 -49 -5 -55 10 -18 43 57 51 45 61 -124 98 -115 25 -178 52 -189 80 -4
10 13 18 61 31 37 9 150 49 252 90 220 87 291 111 379 126 53 9 74 19 106 48
22 20 76 64 120 97 44 34 101 83 126 111 45 48 46 51 52 128 5 73 18 127 78
325 l20 66 157 -1 c86 0 236 4 332 9 153 8 186 7 255 -9 l79 -17 28 33 c16 19
33 51 39 72 9 33 7 41 -17 73 -38 50 -58 58 -90 38 -19 -13 -54 -18 -147 -21
-67 -2 -134 -8 -149 -14 -19 -8 -36 -8 -60 0 -18 6 -96 17 -173 25 -136 14
-200 31 -222 58 -6 7 -16 46 -22 86 -6 40 -32 136 -56 214 -25 77 -49 162 -52
187 -5 38 -16 57 -63 108 -32 33 -95 115 -140 182 -91 133 -155 205 -217 244
-58 37 -154 67 -211 67 -42 0 -54 -5 -86 -34 l-36 -35 0 -124 0 -124 -62 -13
c-34 -6 -126 -36 -204 -65 -77 -30 -171 -59 -207 -66 -55 -10 -67 -16 -69 -33
-3 -23 18 -15 -383 -140 -347 -107 -439 -132 -722 -191 -13 -3 -23 -14 -25
-27 -5 -36 -104 -62 -786 -213 -240 -53 -255 -55 -278 -40 -20 13 -24 23 -22
48 3 29 7 33 53 44 28 6 85 12 128 12 l77 1 0 38 c0 50 22 80 62 84 27 3 33 8
39 34 9 46 42 95 86 127 21 15 66 47 99 71 79 57 112 100 126 169 17 79 13 83
-169 138 -61 18 -76 19 -107 9 -50 -16 -88 -58 -143 -157 -27 -47 -63 -98 -80
-114 -29 -25 -97 -48 -109 -37 -10 11 42 152 111 298 71 152 97 223 110 307 6
36 4 42 -14 48 -30 9 -69 60 -81 105 -11 39 -12 40 -55 40 -40 0 -45 3 -45 23
0 12 -7 31 -15 41 -8 11 -15 34 -15 51 0 27 5 34 38 48 20 9 63 23 95 32 63
17 97 44 97 75 0 16 -7 20 -34 20 -45 0 -53 15 -27 51 25 34 26 52 5 84 l-16
25 50 0 c44 0 51 3 56 23 5 22 -3 84 -22 167 -7 33 -10 35 -52 38 -62 4 -76
10 -62 24 29 29 13 68 -58 143 -38 41 -70 79 -70 84 0 8 -79 11 -239 11 l-240
0 -6 23 c-23 73 -87 115 -255 167 -58 18 -117 39 -132 46 -24 13 -28 13 -28 0z
m4763 -5211 c1 -5 -6 -11 -15 -13 -11 -2 -18 3 -18 13 0 17 30 18 33 0z"/>
<path d="M8770 1094 c0 -12 9 -14 42 -12 59 4 63 28 4 28 -35 0 -46 -4 -46
-16z"/>
</g>
</svg>
