<?xml version="1.0" standalone="no"?>
<!DOCTYPE svg PUBLIC "-//W3C//DTD SVG 20010904//EN"
 "http://www.w3.org/TR/2001/REC-SVG-20010904/DTD/svg10.dtd">
<svg version="1.0" xmlns="http://www.w3.org/2000/svg"
 width="1280.000000pt" height="1217.000000pt" viewBox="0 0 1280.000000 1217.000000"
 preserveAspectRatio="xMidYMid meet">
<metadata>
Created by potrace 1.15, written by Peter Selinger 2001-2017
</metadata>
<g transform="translate(0.000000,1217.000000) scale(0.100000,-0.100000)"
fill="#ffffff" stroke="none">
<path d="M8151 12144 c-261 -101 -568 -130 -1211 -113 -414 10 -668 2 -863
-27 -500 -74 -857 -270 -1153 -634 -137 -168 -287 -431 -388 -680 l-53 -130
-64 83 c-86 111 -247 276 -344 352 -167 131 -356 223 -535 262 -116 25 -352
25 -470 -1 -385 -81 -773 -315 -1232 -740 -298 -276 -622 -641 -1207 -1361
-138 -170 -170 -203 -211 -223 -123 -58 -226 -276 -274 -582 -25 -157 -48
-412 -42 -466 3 -27 1 -65 -4 -83 -5 -18 -11 -67 -12 -107 -3 -64 -5 -74 -21
-74 -34 0 -67 -45 -67 -92 0 -39 279 -889 668 -2038 61 -179 160 -471 220
-650 61 -179 192 -566 292 -860 394 -1159 766 -2287 900 -2730 184 -605 307
-945 426 -1183 l35 -68 117 108 c657 608 1486 1259 2637 2068 413 290 413 290
700 520 138 110 279 221 315 246 165 117 322 188 451 204 67 8 169 -6 326 -47
224 -57 341 -48 518 38 158 76 257 167 501 454 147 173 281 307 364 361 163
108 345 168 750 249 162 32 480 102 705 155 1024 240 1882 420 2580 540 83 14
173 30 201 36 l52 10 1 132 c0 73 7 182 16 242 8 61 18 180 21 265 l5 155
-163 235 c-203 293 -272 389 -370 512 -73 92 -78 100 -92 177 -17 89 -37 135
-64 150 -16 9 -17 19 -10 105 4 53 15 126 23 163 37 160 39 263 6 263 -22 0
-67 47 -89 91 -9 19 -28 39 -41 44 -13 6 -108 123 -214 265 -509 682 -961
1256 -2077 2640 -527 653 -965 1203 -1250 1568 -198 254 -183 244 -309 196z
m204 -356 c221 -286 681 -864 1181 -1483 528 -654 978 -1216 1245 -1555 420
-532 1039 -1347 1039 -1368 0 -10 -137 -43 -275 -66 -216 -36 -354 -47 -1165
-91 -569 -31 -863 -76 -1209 -186 -564 -180 -1016 -536 -1362 -1074 -114 -177
-245 -424 -309 -585 l-18 -45 -30 65 c-16 36 -32 81 -36 101 -3 20 -77 155
-162 300 -349 591 -656 1127 -1484 2599 -460 816 -770 1360 -990 1735 -84 143
-153 268 -152 277 1 33 113 302 183 438 269 531 625 832 1113 941 238 53 254
54 991 55 473 0 720 4 785 12 171 22 283 44 395 77 61 18 112 33 115 33 3 0
68 -81 145 -180z m-4813 -716 c248 -66 486 -233 691 -486 119 -145 153 -196
161 -237 3 -20 81 -164 172 -320 255 -436 556 -964 1074 -1884 1001 -1778
1517 -2673 1583 -2742 17 -18 28 -35 25 -38 -3 -4 -43 1 -89 9 -216 39 -456
45 -654 16 -609 -90 -1229 -441 -1982 -1122 -227 -205 -321 -295 -813 -777
-448 -439 -728 -707 -877 -839 l-71 -62 -62 167 c-120 323 -397 1107 -552
1563 -216 636 -272 803 -433 1280 -95 283 -180 535 -188 560 -9 25 -52 151
-96 280 -251 742 -522 1509 -715 2024 -64 169 -116 322 -116 340 1 32 44 89
458 591 901 1092 1503 1585 2067 1690 111 20 314 14 417 -13z m-2969 -2812
c236 -637 506 -1413 862 -2470 208 -617 413 -1225 493 -1460 209 -613 414
-1196 566 -1608 54 -144 94 -267 91 -272 -4 -6 -15 -182 -26 -393 -18 -360
-32 -594 -45 -767 -7 -80 4 -118 46 -170 19 -23 20 -37 18 -135 l-3 -110 -127
365 c-167 481 -259 744 -318 915 -26 77 -90 259 -140 405 -51 146 -141 408
-201 583 -60 174 -159 462 -220 640 -61 177 -146 426 -189 552 -379 1114 -502
1478 -772 2289 l-310 929 16 51 c9 28 17 89 17 136 1 47 7 99 14 115 7 17 18
89 25 160 22 250 76 554 95 533 1 -2 50 -131 108 -288z m11391 -1345 c-5 -85
-11 -118 -27 -143 -16 -27 -19 -45 -14 -90 9 -94 27 -161 52 -190 20 -24 25
-46 34 -159 12 -138 28 -239 84 -548 19 -104 38 -217 42 -251 l7 -61 -184 -7
c-101 -4 -417 -11 -703 -16 -789 -15 -1150 -45 -1515 -126 -730 -163 -1212
-520 -1520 -1125 l-63 -124 -14 40 c-8 22 -30 110 -48 195 -38 178 -57 238
-91 297 -33 57 -71 75 -153 75 -61 0 -75 -5 -196 -66 -71 -36 -143 -69 -159
-72 l-28 -7 7 62 c10 91 28 151 87 298 50 123 55 132 90 148 50 22 65 46 133
205 279 660 668 1114 1170 1364 371 185 755 263 1480 301 694 36 789 43 1015
71 112 14 396 69 475 92 28 8 30 7 37 -22 4 -17 5 -80 2 -141z m-5059 -1745
c194 -14 294 -36 325 -71 20 -23 34 -29 76 -31 l52 -3 -48 -140 c-27 -77 -77
-224 -113 -326 -116 -330 -154 -529 -164 -865 l-6 -191 -167 -7 c-777 -31
-1415 -298 -2125 -889 -301 -251 -553 -501 -1222 -1212 -317 -337 -803 -825
-822 -825 -15 0 -14 15 14 206 14 93 25 196 25 230 0 49 4 65 21 80 12 10 27
31 35 46 16 31 37 299 59 758 8 179 18 352 21 386 l5 61 93 81 c164 142 409
376 886 843 784 768 1008 970 1380 1248 216 161 381 264 595 372 300 150 557
228 825 249 52 4 102 8 110 8 8 1 74 -3 145 -8z"/>
</g>
</svg>
