<?xml version="1.0" standalone="no"?>
<!DOCTYPE svg PUBLIC "-//W3C//DTD SVG 20010904//EN"
 "http://www.w3.org/TR/2001/REC-SVG-20010904/DTD/svg10.dtd">
<svg version="1.0" xmlns="http://www.w3.org/2000/svg"
 width="1089.000000pt" height="1280.000000pt" viewBox="0 0 1089.000000 1280.000000"
 preserveAspectRatio="xMidYMid meet">
<metadata>
Created by potrace 1.15, written by Peter Selinger 2001-2017
</metadata>
<g transform="translate(0.000000,1280.000000) scale(0.100000,-0.100000)"
fill="#ffffff" stroke="none">
<path d="M9592 12638 c-148 -161 -150 -163 -132 -183 11 -11 96 -85 189 -165
94 -80 169 -151 168 -157 -2 -12 -5247 -6442 -5638 -6913 -359 -431 -656 -731
-945 -951 -132 -101 -267 -190 -519 -344 -305 -186 -469 -297 -647 -441 -62
-49 -261 -280 -1024 -1185 -521 -618 -969 -1150 -996 -1181 l-49 -57 658 -529
658 -530 21 22 c12 11 440 545 951 1186 910 1141 981 1236 1126 1485 83 144
184 365 302 664 176 444 266 622 463 915 147 219 251 354 832 1081 299 374
911 1139 1359 1700 1203 1506 2515 3149 3199 4005 332 415 608 756 613 758 5
2 94 -71 198 -162 l190 -166 74 88 c161 188 246 297 239 303 -4 3 -254 205
-557 449 -302 243 -557 449 -566 456 -14 13 -33 -5 -167 -148z"/>
</g>
</svg>
