<?xml version="1.0" standalone="no"?>
<!DOCTYPE svg PUBLIC "-//W3C//DTD SVG 20010904//EN"
 "http://www.w3.org/TR/2001/REC-SVG-20010904/DTD/svg10.dtd">
<svg version="1.0" xmlns="http://www.w3.org/2000/svg"
 width="1272.000000pt" height="1280.000000pt" viewBox="0 0 1272.000000 1280.000000"
 preserveAspectRatio="xMidYMid meet">
<metadata>
Created by potrace 1.15, written by Peter Selinger 2001-2017
</metadata>
<g transform="translate(0.000000,1280.000000) scale(0.100000,-0.100000)"
fill="#401d03" stroke="none">
<path d="M8385 12776 c-108 -38 -163 -73 -250 -160 -171 -173 -243 -370 -344
-941 -32 -179 -46 -282 -39 -286 5 -4 -16 -22 -49 -42 -62 -38 -110 -83 -140
-133 -10 -17 -33 -44 -51 -59 -40 -33 -59 -68 -87 -160 -20 -66 -23 -70 -54
-73 -17 -2 -78 8 -134 22 -149 37 -207 44 -282 34 -49 -7 -99 -5 -189 7 -165
23 -529 31 -708 16 -374 -31 -786 -122 -1117 -246 -82 -31 -105 -35 -187 -35
l-92 0 -28 83 c-45 134 -68 161 -219 252 -114 69 -159 109 -209 184 -75 114
-122 239 -196 526 -95 366 -152 497 -270 616 -52 53 -95 86 -140 107 -67 33
-168 59 -193 49 -19 -7 -73 -176 -87 -274 -22 -154 17 -325 116 -497 27 -48
109 -166 183 -264 170 -226 219 -298 269 -397 56 -112 74 -178 66 -245 -3 -30
-1 -74 4 -97 5 -23 7 -45 4 -48 -21 -21 0 -146 40 -243 l30 -73 -18 -40 c-22
-50 -72 -95 -116 -104 -73 -16 -164 -82 -201 -146 -12 -21 -26 -37 -32 -35
-13 4 -127 -74 -245 -168 -129 -103 -350 -325 -468 -471 -53 -65 -142 -166
-198 -225 -119 -124 -152 -171 -209 -294 -24 -51 -55 -106 -68 -122 -13 -16
-28 -39 -31 -52 -4 -13 -32 -50 -62 -84 -96 -108 -179 -249 -239 -408 -16 -41
-29 -76 -30 -77 0 -1 -19 4 -40 12 -56 20 -145 18 -291 -6 -147 -23 -219 -17
-366 32 -119 39 -167 64 -332 177 -295 200 -298 202 -448 260 -285 112 -457
108 -596 -13 -48 -42 -53 -69 -27 -169 33 -127 129 -231 285 -308 163 -81 298
-118 710 -198 378 -73 440 -89 440 -112 0 -16 11 -23 33 -19 17 3 97 -61 97
-77 0 -31 38 -80 82 -105 24 -14 81 -37 128 -52 47 -15 86 -29 88 -30 2 -2
-15 -124 -37 -272 -70 -468 -83 -601 -88 -918 -7 -381 18 -596 99 -854 16 -53
31 -121 33 -151 8 -128 13 -190 20 -231 10 -59 48 -142 87 -191 26 -33 31 -49
30 -82 -1 -22 6 -77 17 -121 l20 -80 -42 -34 c-76 -62 -178 -176 -251 -282
-65 -95 -78 -108 -150 -151 -103 -62 -230 -111 -516 -198 -370 -113 -489 -161
-621 -251 -114 -77 -215 -214 -253 -342 l-14 -48 41 -51 c86 -105 221 -149
356 -114 145 37 359 162 686 400 324 235 451 302 603 316 68 7 99 5 141 -7 77
-22 133 -12 243 43 51 25 96 51 99 56 4 6 26 -18 50 -53 303 -450 728 -898
1179 -1243 201 -154 565 -386 732 -467 31 -15 44 -26 39 -33 -18 -22 -41 -122
-41 -177 0 -32 9 -104 19 -161 31 -166 32 -189 17 -271 -32 -163 -88 -283
-286 -602 -196 -317 -250 -449 -250 -612 0 -124 47 -247 137 -358 21 -25 24
-26 60 -15 215 70 358 237 453 530 30 94 57 211 130 555 56 267 96 400 123
413 12 5 49 31 82 58 33 27 73 56 90 64 40 20 69 66 99 158 34 100 59 140 93
148 18 5 71 -4 154 -24 138 -35 229 -40 293 -17 37 13 42 12 95 -14 71 -36
162 -65 271 -88 117 -24 407 -24 538 0 58 11 98 14 105 9 7 -5 76 -10 153 -11
126 -1 151 2 225 25 46 14 103 29 126 33 23 4 48 12 55 18 7 6 54 13 105 16
137 10 259 40 558 137 149 49 287 91 308 95 32 6 37 5 37 -11 0 -34 57 -140
95 -177 20 -19 81 -65 135 -102 215 -144 273 -249 399 -725 73 -277 128 -429
185 -515 80 -120 199 -201 338 -229 111 -23 116 -22 127 22 51 191 36 453 -38
639 -60 153 -132 270 -338 550 -189 256 -177 235 -175 318 2 39 -3 106 -9 150
-7 44 -13 119 -15 167 -2 75 -7 99 -39 170 -20 46 -37 87 -38 92 -3 15 112
103 259 197 169 108 290 203 341 268 21 27 53 57 72 67 36 20 306 269 306 283
0 4 47 60 104 124 183 205 323 396 367 502 7 17 38 62 70 100 111 136 184 268
184 333 0 10 9 27 20 37 11 10 23 34 26 54 4 21 22 53 44 77 21 23 50 60 65
83 15 22 28 41 29 41 0 0 30 -9 64 -20 81 -25 168 -25 317 0 64 11 141 20 169
20 97 0 234 -61 466 -208 342 -216 467 -278 628 -308 115 -22 234 -14 345 23
l82 28 -1 80 c-3 184 -103 320 -314 429 -145 75 -242 103 -805 236 -165 39
-322 87 -417 127 -25 11 -38 23 -38 35 0 10 -8 21 -17 25 -10 3 -38 24 -61 46
-24 21 -82 57 -128 78 -76 36 -84 43 -94 77 -14 50 -13 57 10 102 44 86 72
194 80 305 5 61 16 153 25 205 14 77 17 167 18 475 2 423 -7 583 -34 665 -11
34 -17 81 -16 120 1 44 -4 75 -16 97 -9 18 -17 45 -17 62 0 62 -51 306 -65
314 -9 5 -15 23 -15 44 0 55 -25 138 -85 283 -30 73 -55 136 -55 141 0 5 22
20 48 33 75 38 142 96 238 206 198 227 304 285 739 399 310 81 419 125 530
213 56 45 112 115 143 180 22 48 52 178 52 227 0 28 -3 30 -57 43 -33 7 -119
13 -198 13 -114 0 -156 -4 -225 -23 -136 -36 -304 -126 -536 -287 -126 -87
-258 -170 -333 -207 -123 -62 -125 -63 -210 -63 -61 0 -96 -5 -120 -17 -30
-16 -36 -16 -54 -3 -34 24 -96 18 -167 -16 -120 -57 -110 -59 -187 39 -180
232 -422 530 -525 647 -415 470 -788 754 -1203 915 -33 13 -68 34 -78 47 -10
12 -24 23 -31 23 -8 0 -44 23 -82 51 -85 63 -109 76 -159 84 -22 3 -68 19
-103 33 l-62 27 7 50 c15 93 6 206 -26 348 -65 290 -42 376 201 761 162 256
205 342 239 481 21 88 25 212 9 296 -13 67 -51 189 -59 189 -3 0 -37 -11 -76
-24z m-577 -1512 c31 -22 27 -51 -12 -90 -30 -30 -40 -34 -89 -34 -31 0 -58 4
-61 9 -8 12 39 67 88 102 46 34 45 34 74 13z m-68 -299 c0 -86 -42 -129 -101
-105 -33 14 -35 26 -14 98 l16 52 49 0 50 0 0 -45z m-3602 -67 c17 -17 15 -45
-5 -95 -16 -38 -22 -43 -49 -43 -28 0 -32 4 -38 34 -7 37 0 83 17 104 12 15
59 16 75 0z m226 -153 c84 -62 88 -64 106 -55 60 32 52 -18 -12 -75 -65 -58
-101 -77 -132 -69 -21 5 -25 14 -31 57 -4 29 -15 67 -26 85 -35 61 -20 86 45
76 17 -2 39 -11 50 -19z m1669 -722 c-7 -2 -19 -2 -25 0 -7 3 -2 5 12 5 14 0
19 -2 13 -5z m887 -19 c181 -26 428 -80 417 -91 -3 -2 -45 5 -93 17 -61 16
-104 21 -140 17 -37 -4 -71 0 -116 15 -35 11 -112 31 -173 44 -117 25 -82 24
105 -2z m-1005 0 c-229 -40 -464 -105 -667 -185 -70 -28 -131 -48 -136 -45 -5
3 -35 -5 -68 -18 -32 -13 -92 -36 -132 -51 -40 -15 -91 -42 -113 -61 -30 -25
-51 -34 -77 -34 -51 -1 -108 -30 -169 -87 -28 -26 -73 -59 -100 -73 -75 -39
-211 -126 -292 -187 -177 -133 -307 -259 -679 -656 -30 -32 -56 -56 -59 -54
-2 3 31 49 75 103 560 702 1350 1172 2232 1328 188 33 189 33 230 34 19 0 -1
-6 -45 -14z m787 -78 c100 -16 243 -49 289 -67 26 -10 27 -13 22 -69 -5 -49
-1 -66 22 -116 16 -33 27 -67 26 -77 -1 -10 3 -24 9 -32 8 -10 6 -27 -8 -68
-26 -74 -32 -82 -72 -109 -69 -47 -78 -109 -17 -116 24 -3 25 -5 16 -30 -6
-15 -11 -53 -11 -85 0 -44 -3 -57 -13 -53 -8 3 -98 10 -202 17 -413 26 -852
-13 -1219 -107 -76 -20 -148 -38 -160 -41 -20 -5 -21 -2 -16 74 6 113 -23 165
-135 238 l-43 28 0 189 0 189 48 20 c85 37 335 117 462 148 144 35 331 67 475
80 130 13 404 5 527 -13z m478 -146 c48 -1 47 -41 -3 -67 -28 -14 -31 -14 -44
3 -7 10 -13 31 -13 47 0 26 3 29 23 23 12 -3 29 -6 37 -6z m622 -130 c68 -27
143 -52 168 -56 33 -5 58 -18 91 -48 26 -24 85 -59 135 -81 199 -87 456 -288
792 -619 148 -146 190 -194 218 -248 20 -36 56 -88 80 -115 25 -26 54 -64 64
-84 30 -57 64 -173 53 -176 -6 -2 -36 -19 -66 -37 -31 -19 -58 -32 -61 -29 -3
3 -16 3 -30 -1 -33 -8 -56 -53 -56 -108 0 -53 -12 -62 -109 -82 -87 -18 -122
-36 -174 -91 -36 -37 -191 -145 -208 -145 -3 0 -26 28 -50 63 -111 159 -296
375 -463 542 -265 264 -475 421 -756 563 -80 40 -147 75 -149 77 -2 2 11 29
28 60 18 31 63 133 102 228 39 95 84 197 100 227 39 72 141 210 156 210 7 0
68 -22 135 -50z m383 -78 c-3 -3 -11 0 -18 7 -9 10 -8 11 6 5 10 -3 15 -9 12
-12z m-962 -68 c20 -21 -69 -144 -105 -144 -15 0 -15 5 7 53 14 28 25 57 25
64 0 22 57 43 73 27z m-2409 -20 c25 -10 19 -34 -8 -34 -29 0 -44 19 -25 31
17 11 14 10 33 3z m-250 -113 c27 -52 77 -91 180 -143 121 -60 133 -70 147
-120 10 -39 9 -41 -26 -71 -28 -25 -38 -42 -42 -75 -9 -64 14 -84 91 -81 l60
3 29 -49 c17 -28 24 -52 19 -57 -5 -5 -63 -50 -130 -101 -531 -404 -783 -686
-999 -1122 -55 -110 -59 -115 -89 -115 -45 0 -82 34 -115 107 -15 34 -30 63
-32 63 -3 0 -24 -9 -48 -20 -97 -44 -188 -19 -309 86 -36 31 -89 69 -117 86
-29 16 -53 33 -53 38 0 27 78 215 109 265 21 33 65 105 97 160 31 55 75 127
98 160 22 32 40 67 41 76 2 23 252 295 436 474 208 202 371 329 541 420 46 25
86 45 90 45 4 0 14 -13 22 -29z m444 -110 c20 -12 14 -199 -7 -210 -11 -7 -21
4 -43 48 -34 67 -34 72 -6 127 22 44 32 51 56 35z m2117 -92 c9 -13 -35 -33
-47 -21 -17 17 -2 41 22 35 11 -3 23 -9 25 -14z m-142 -186 c-7 -2 -19 -2 -25
0 -7 3 -2 5 12 5 14 0 19 -2 13 -5z m-1822 -42 c39 -40 37 -63 -6 -84 -20 -9
-37 -17 -39 -17 -2 0 -18 25 -36 56 -25 45 -29 59 -18 65 27 18 69 9 99 -20z
m5727 -223 l3 -38 -50 0 c-39 0 -55 5 -70 22 -11 11 -18 25 -15 30 11 17 48
27 89 25 39 -2 40 -3 43 -39z m-230 -199 c2 -10 -11 -25 -30 -37 -30 -19 -34
-20 -50 -5 -21 19 -24 49 -5 57 26 11 82 1 85 -15z m-1135 -224 c20 -35 22
-45 11 -45 -14 0 -22 14 -38 68 -11 35 0 26 27 -23z m130 -235 c37 -72 67
-136 67 -144 0 -8 -8 -17 -17 -20 -10 -4 -14 -4 -10 0 4 4 -2 21 -12 38 -10
17 -28 61 -40 98 -13 37 -33 83 -47 103 -25 37 -30 55 -16 55 5 0 39 -59 75
-130z m-213 25 l0 -45 -39 0 c-33 0 -39 3 -44 25 -4 22 2 29 32 45 20 11 39
19 44 20 4 0 7 -20 7 -45z m-6360 -152 c-17 -49 -49 -133 -72 -188 -82 -203
-128 -375 -107 -401 5 -7 -1 -20 -17 -35 -32 -29 -52 -67 -75 -139 -10 -30
-18 -46 -18 -35 -1 30 75 315 115 435 65 192 193 486 201 463 3 -7 -10 -52
-27 -100z m-1136 31 l63 -16 -10 -40 c-9 -36 -13 -39 -36 -35 -20 4 -113 35
-129 44 -6 2 20 48 32 55 14 10 7 10 80 -8z m-348 -20 c19 -9 41 -26 49 -38
17 -23 20 -66 6 -66 -5 0 -16 -7 -24 -14 -13 -13 -20 -12 -56 12 -24 15 -41
34 -41 45 0 10 -9 21 -20 24 -24 6 -25 11 -3 35 20 22 45 23 89 2z m7608 -92
c-21 -28 -96 -72 -125 -72 -17 0 -43 46 -34 60 3 5 29 12 58 15 28 4 66 13 82
19 39 17 43 12 19 -22z m574 -59 c11 -29 19 -53 16 -53 -3 0 -16 7 -29 16 -21
13 -25 24 -25 62 0 53 8 48 38 -25z m-848 -86 c0 -47 -22 -71 -86 -97 -55 -23
-57 -23 -70 -5 -8 10 -14 24 -14 31 0 14 151 115 162 108 4 -3 8 -20 8 -37z
m799 -85 c22 -21 30 -41 35 -87 4 -33 21 -107 36 -165 98 -354 110 -456 112
-910 0 -221 -3 -292 -21 -424 -15 -102 -19 -161 -12 -165 6 -4 2 -27 -9 -61
-11 -30 -19 -75 -20 -100 0 -41 -3 -47 -29 -57 -22 -8 -42 -7 -83 4 -62 17
-140 5 -181 -28 -19 -14 -41 -19 -86 -19 -111 0 -161 41 -161 130 l0 40 -40 0
c-39 0 -108 -22 -120 -38 -3 -4 -44 -6 -92 -4 -107 5 -102 -8 -69 163 35 181
45 289 45 489 0 243 -20 402 -79 644 -35 144 -65 296 -65 332 0 39 10 48 79
68 74 22 123 20 154 -4 l26 -21 20 38 c37 72 125 134 231 163 70 19 189 38
248 39 46 1 58 -3 81 -27z m180 -207 c29 -105 37 -144 26 -133 -8 7 -65 211
-65 232 0 32 6 16 39 -99z m-6804 -100 c0 -37 -2 -40 -25 -36 -14 1 -35 8 -48
15 l-23 12 26 28 c16 17 33 26 48 24 19 -3 22 -9 22 -43z m302 35 c26 -6 59
-19 72 -29 22 -17 23 -21 12 -53 -7 -20 -20 -38 -30 -41 -11 -2 -46 11 -80 30
-56 31 -61 37 -61 69 0 39 7 41 87 24z m340 -84 c1 -1 -3 -19 -9 -39 l-11 -37
-72 0 c-39 0 -74 3 -78 6 -34 35 130 102 170 70z m-336 -106 c3 0 16 -20 28
-45 25 -49 50 -58 83 -28 14 12 34 16 84 14 109 -4 105 3 78 -131 -14 -63 -31
-158 -40 -210 -21 -135 -29 -450 -15 -606 21 -234 93 -530 180 -744 l29 -71
-25 -10 c-14 -5 -65 -18 -115 -29 -108 -24 -150 -47 -184 -106 l-26 -44 -83 0
c-45 0 -125 -8 -176 -19 -160 -32 -174 -33 -191 -13 -9 9 -28 73 -43 142 -15
69 -65 279 -111 466 l-83 341 7 101 c4 55 3 147 -1 204 -5 57 -9 117 -9 133 1
79 21 228 40 300 12 44 26 125 32 180 6 55 15 118 21 140 11 39 46 115 53 115
2 0 28 -11 58 -25 40 -19 70 -25 121 -25 78 0 102 9 111 44 l6 24 82 -49 c46
-27 86 -49 89 -49z m6564 -17 c4 -26 3 -43 -3 -43 -12 0 -35 88 -26 102 9 15
20 -7 29 -59z m-7200 -168 c-9 -71 -20 -136 -26 -144 -7 -12 -8 -6 -4 19 25
180 38 260 42 257 2 -2 -4 -62 -12 -132z m7241 -78 c16 -126 16 -137 5 -137
-6 0 -12 19 -15 43 -7 56 -12 207 -7 201 3 -2 10 -50 17 -107z m-41 -1164
c-10 -71 -27 -91 -19 -23 6 56 11 70 21 70 3 0 2 -21 -2 -47z m-875 -123 c0
-40 0 -40 -38 -40 -34 0 -40 4 -55 34 -8 19 -13 37 -10 40 4 3 28 6 55 6 l48
0 0 -40z m624 -46 c10 -4 16 -18 16 -40 0 -33 -1 -34 -43 -34 -68 0 -113 44
-69 69 19 12 72 14 96 5z m171 -150 c-9 -53 -56 -174 -66 -174 -19 0 -7 61 26
134 20 42 38 76 41 76 4 0 3 -16 -1 -36z m-952 -82 c39 -23 64 -68 72 -128 l7
-51 53 29 c69 37 128 45 196 24 71 -21 126 -58 220 -151 l77 -77 4 -70 c3 -62
1 -72 -20 -91 -13 -12 -46 -65 -73 -117 -27 -52 -89 -147 -139 -210 -50 -63
-108 -149 -130 -190 -47 -89 -60 -104 -125 -152 -55 -39 -97 -88 -138 -158
-15 -27 -51 -63 -88 -90 -34 -24 -76 -61 -93 -82 -18 -21 -50 -49 -72 -64 -21
-14 -59 -45 -84 -69 -46 -45 -258 -190 -293 -201 -11 -3 -22 -2 -26 3 -3 5
-43 41 -88 80 -90 79 -135 106 -208 124 l-47 12 4 87 c3 60 10 99 25 128 24
49 23 50 -63 88 -77 34 -94 50 -94 90 0 27 10 40 68 90 187 160 315 276 391
353 187 191 357 432 474 674 l72 147 45 -6 c25 -3 58 -13 73 -22z m-5007 -239
c7 -10 14 -21 14 -25 0 -9 -68 -48 -85 -48 -31 0 -27 25 10 57 45 38 44 38 61
16z m6979 -28 c22 -12 48 -32 58 -43 17 -18 17 -25 6 -56 l-13 -36 -103 0
c-100 0 -103 1 -103 22 0 13 11 45 24 73 13 27 27 58 30 67 6 21 32 14 101
-27z m-6830 -171 c136 -201 327 -408 515 -559 63 -50 207 -154 320 -230 113
-76 206 -143 208 -149 5 -20 -98 -308 -143 -401 -108 -225 -248 -338 -321
-260 -13 14 -33 25 -45 25 -12 0 -70 31 -128 69 -58 38 -135 85 -171 104 -44
25 -119 88 -235 197 -93 89 -230 215 -303 281 -184 166 -212 195 -212 222 0
29 -47 102 -95 147 -100 94 -90 172 36 281 59 51 99 110 99 147 0 12 12 24 32
33 27 11 42 10 118 -10 113 -29 141 -26 154 17 6 21 5 45 -1 67 l-11 35 56 35
c31 19 59 35 62 35 4 0 33 -39 65 -86z m-390 24 c7 -7 6 -12 -3 -15 -7 -3 -18
-10 -25 -16 -11 -11 -82 -47 -92 -47 -11 0 -15 63 -5 75 21 25 101 27 125 3z
m7452 -4 c37 -14 42 -20 37 -38 -12 -37 -38 -65 -62 -66 -41 0 -62 18 -62 55
0 69 14 77 87 49z m-7801 -52 c-26 -50 -116 -74 -116 -30 0 38 28 58 82 58
l49 0 -15 -28z m6237 -182 c-53 -95 -68 -100 -22 -9 34 70 47 89 59 89 5 0
-12 -36 -37 -80z m-141 -227 c-131 -194 -205 -282 -134 -161 29 51 185 257
190 252 2 -1 -23 -42 -56 -91z m-7125 -100 c-8 -7 -45 60 -52 92 -4 21 3 13
25 -29 17 -32 29 -60 27 -63z m390 -603 c179 -237 459 -535 678 -721 572 -486
1254 -828 1969 -987 72 -16 132 -34 134 -40 6 -20 -67 -14 -196 18 -68 17
-141 30 -162 30 -21 0 -42 5 -46 11 -11 18 -69 38 -170 59 -52 11 -107 26
-124 35 -16 8 -47 15 -68 15 -29 0 -49 8 -78 31 -51 41 -128 77 -184 85 -88
14 -474 243 -750 447 -369 273 -754 652 -1041 1027 -161 210 -217 299 -219
349 0 8 42 -49 93 -125 50 -77 124 -182 164 -234z m-762 299 c-4 -5 -22 -9
-40 -9 -26 0 -33 4 -29 14 3 8 13 17 22 19 22 5 54 -11 47 -24z m7150 -37
c-27 -26 -42 -38 -35 -27 25 36 73 85 79 79 3 -2 -17 -26 -44 -52z m-205 -208
c-25 -25 -54 -50 -65 -55 -11 -6 6 15 38 45 70 67 89 75 27 10z m-1485 -31
c15 -145 57 -209 153 -234 l53 -13 -8 -96 c-9 -117 -9 -115 0 -226 l8 -91 -37
-28 c-25 -20 -51 -29 -87 -31 -76 -6 -193 -40 -269 -79 -37 -19 -90 -36 -120
-40 -29 -3 -69 -8 -88 -10 -174 -23 -636 -58 -765 -59 -38 0 -101 7 -140 16
-60 14 -214 32 -385 44 -127 8 -168 18 -242 55 l-77 39 21 47 c17 37 22 66 21
125 -2 96 -8 116 -38 124 l-24 6 23 32 c13 17 36 55 50 84 24 47 30 52 59 52
40 0 81 20 85 42 2 9 -13 53 -32 98 -20 45 -36 87 -36 95 0 8 16 22 36 31 35
17 39 16 142 -10 434 -108 896 -93 1432 49 76 20 151 33 192 34 l67 1 6 -57z
m-2017 -256 c18 -21 -42 -117 -72 -117 -52 0 -56 44 -9 100 26 32 63 39 81 17z
m2987 -107 c-9 -15 -45 -32 -45 -22 0 5 10 14 23 20 29 14 29 14 22 2z m-3020
-257 c-9 -49 -32 -93 -49 -93 -28 0 -76 23 -76 36 0 27 31 75 53 84 12 5 35 9
51 9 27 1 28 0 21 -36z m3298 -825 c39 -88 41 -107 13 -114 -51 -12 -116 49
-116 109 0 22 14 33 78 56 1 1 13 -23 25 -51z m-443 -33 c0 -15 -226 -103
-237 -92 -1 2 50 24 115 49 136 54 122 49 122 43z m-588 -211 c-122 -39 -302
-80 -387 -88 -58 -5 -58 -5 -15 5 235 51 327 73 395 94 120 36 125 28 7 -11z
m1122 -16 c3 -13 6 -67 6 -120 0 -78 -3 -98 -14 -98 -36 0 -91 125 -84 187 5
47 81 72 92 31z m-4049 -28 c23 0 23 -1 9 -27 -7 -16 -14 -35 -14 -44 0 -27
-40 -60 -68 -57 -26 3 -27 6 -30 65 -3 61 -2 62 25 66 15 2 34 2 41 0 8 -1 24
-3 37 -3z m1232 -91 c54 -6 206 -14 338 -18 l240 -6 -75 -15 c-50 -10 -135
-15 -255 -15 -164 1 -190 3 -290 29 -120 31 -168 51 -98 42 23 -3 86 -11 140
-17z m988 -5 c-51 -19 -195 -31 -195 -16 0 6 34 13 78 17 42 3 84 8 92 9 8 2
26 4 40 4 20 0 16 -3 -15 -14z m-2131 -247 c29 -21 15 -49 -46 -91 -56 -38
-58 -39 -82 -22 -15 9 -26 22 -26 29 0 35 74 97 116 97 11 0 28 -6 38 -13z"/>
</g>
</svg>
